<svg width="800" height="200" viewBox="0 0 800 200" fill="none" xmlns="http://www.w3.org/2000/svg">
<rect width="800" height="200" fill="#FFFDFD"/>
<circle cx="84" cy="84" r="31" fill="#D9D9D9"/>
<circle cx="291" cy="84" r="31" fill="#EBE9E9"/>
<circle cx="498" cy="84" r="31" fill="#EBE9E9"/>
<circle cx="705" cy="84" r="31" fill="#EBE9E9"/>
<circle cx="84" cy="84" r="31" fill="#EBE9E9"/>
<rect x="100" y="74" width="605" height="21" fill="#EBE9E9"/>
<circle cx="84" cy="84" r="26" fill="#EB5E28"/>
<circle cx="291" cy="84" r="26" fill="#EB5E28"/>
<rect x="84" y="79" width="296" height="10" fill="#EB5E28"/>
<path d="M65.2002 141H62.4141L62.4316 138.943H65.2002C65.8916 138.943 66.4746 138.788 66.9492 138.478C67.4238 138.161 67.7812 137.701 68.0215 137.098C68.2676 136.494 68.3906 135.765 68.3906 134.909V134.285C68.3906 133.629 68.3203 133.052 68.1797 132.554C68.0449 132.056 67.8428 131.637 67.5732 131.297C67.3037 130.957 66.9727 130.702 66.5801 130.532C66.1875 130.356 65.7363 130.269 65.2266 130.269H62.3613V128.203H65.2266C66.082 128.203 66.8643 128.35 67.5732 128.643C68.2881 128.93 68.9062 129.343 69.4277 129.882C69.9492 130.421 70.3506 131.065 70.6318 131.815C70.9189 132.56 71.0625 133.389 71.0625 134.303V134.909C71.0625 135.817 70.9189 136.646 70.6318 137.396C70.3506 138.146 69.9492 138.791 69.4277 139.33C68.9121 139.863 68.2939 140.276 67.5732 140.569C66.8584 140.856 66.0674 141 65.2002 141ZM63.9082 128.203V141H61.2715V128.203H63.9082ZM77.1973 141.176C76.459 141.176 75.7969 141.059 75.2109 140.824C74.625 140.584 74.127 140.253 73.7168 139.831C73.3125 139.409 73.002 138.92 72.7852 138.363C72.5684 137.801 72.46 137.203 72.46 136.57V136.219C72.46 135.498 72.5625 134.839 72.7676 134.241C72.9727 133.644 73.2656 133.125 73.6465 132.686C74.0332 132.246 74.502 131.909 75.0527 131.675C75.6035 131.435 76.2246 131.314 76.916 131.314C77.5898 131.314 78.1875 131.426 78.709 131.648C79.2305 131.871 79.667 132.188 80.0186 132.598C80.376 133.008 80.6455 133.5 80.8271 134.074C81.0088 134.643 81.0996 135.275 81.0996 135.973V137.027H73.541V135.34H78.6123V135.146C78.6123 134.795 78.5479 134.481 78.4189 134.206C78.2959 133.925 78.1084 133.702 77.8564 133.538C77.6045 133.374 77.2822 133.292 76.8896 133.292C76.5557 133.292 76.2686 133.365 76.0283 133.512C75.7881 133.658 75.5918 133.863 75.4395 134.127C75.293 134.391 75.1816 134.701 75.1055 135.059C75.0352 135.41 75 135.797 75 136.219V136.57C75 136.951 75.0527 137.303 75.1582 137.625C75.2695 137.947 75.4248 138.226 75.624 138.46C75.8291 138.694 76.0752 138.876 76.3623 139.005C76.6553 139.134 76.9863 139.198 77.3555 139.198C77.8125 139.198 78.2373 139.11 78.6299 138.935C79.0283 138.753 79.3711 138.48 79.6582 138.117L80.8887 139.453C80.6895 139.74 80.417 140.016 80.0713 140.279C79.7314 140.543 79.3213 140.76 78.8408 140.93C78.3604 141.094 77.8125 141.176 77.1973 141.176ZM75.4131 130.198L77.1357 127.491H79.8867L77.4697 130.198H75.4131ZM82.541 127.5H85.0723V138.82L84.8174 141H82.541V127.5ZM91.0928 136.148V136.333C91.0928 137.042 91.0166 137.692 90.8643 138.284C90.7178 138.876 90.4893 139.389 90.1787 139.822C89.8682 140.25 89.4814 140.584 89.0186 140.824C88.5615 141.059 88.0225 141.176 87.4014 141.176C86.8213 141.176 86.3174 141.059 85.8896 140.824C85.4678 140.59 85.1133 140.259 84.8262 139.831C84.5391 139.403 84.3076 138.902 84.1318 138.328C83.9561 137.754 83.8242 137.127 83.7363 136.447V136.043C83.8242 135.363 83.9561 134.736 84.1318 134.162C84.3076 133.588 84.5391 133.087 84.8262 132.659C85.1133 132.231 85.4678 131.9 85.8896 131.666C86.3115 131.432 86.8096 131.314 87.3838 131.314C88.0107 131.314 88.5557 131.435 89.0186 131.675C89.4873 131.909 89.874 132.243 90.1787 132.677C90.4893 133.104 90.7178 133.614 90.8643 134.206C91.0166 134.792 91.0928 135.439 91.0928 136.148ZM88.5615 136.333V136.148C88.5615 135.762 88.5322 135.398 88.4736 135.059C88.4209 134.713 88.3271 134.411 88.1924 134.153C88.0576 133.89 87.873 133.682 87.6387 133.529C87.4102 133.377 87.1143 133.301 86.751 133.301C86.4053 133.301 86.1123 133.359 85.8721 133.477C85.6318 133.594 85.4326 133.758 85.2744 133.969C85.1221 134.18 85.0078 134.432 84.9316 134.725C84.8555 135.012 84.8086 135.328 84.791 135.674V136.825C84.8086 137.288 84.8848 137.698 85.0195 138.056C85.1602 138.407 85.3711 138.686 85.6523 138.891C85.9395 139.09 86.3115 139.189 86.7686 139.189C87.126 139.189 87.4219 139.119 87.6562 138.979C87.8906 138.838 88.0723 138.639 88.2012 138.381C88.3359 138.123 88.4297 137.821 88.4824 137.476C88.5352 137.124 88.5615 136.743 88.5615 136.333ZM98.291 138.724V131.49H100.822V141H98.4404L98.291 138.724ZM98.5723 136.772L99.3193 136.755C99.3193 137.388 99.2461 137.977 99.0996 138.521C98.9531 139.061 98.7334 139.529 98.4404 139.928C98.1475 140.32 97.7783 140.628 97.333 140.851C96.8877 141.067 96.3633 141.176 95.7598 141.176C95.2969 141.176 94.8691 141.111 94.4766 140.982C94.0898 140.848 93.7559 140.64 93.4746 140.358C93.1992 140.071 92.9824 139.705 92.8242 139.26C92.6719 138.809 92.5957 138.267 92.5957 137.634V131.49H95.127V137.651C95.127 137.933 95.1592 138.17 95.2236 138.363C95.2939 138.557 95.3906 138.715 95.5137 138.838C95.6367 138.961 95.7803 139.049 95.9443 139.102C96.1143 139.154 96.3018 139.181 96.5068 139.181C97.0283 139.181 97.4385 139.075 97.7373 138.864C98.042 138.653 98.2559 138.366 98.3789 138.003C98.5078 137.634 98.5723 137.224 98.5723 136.772ZM107.414 131.49V133.283H101.877V131.49H107.414ZM103.248 129.144H105.779V138.135C105.779 138.41 105.814 138.621 105.885 138.768C105.961 138.914 106.072 139.017 106.219 139.075C106.365 139.128 106.55 139.154 106.772 139.154C106.931 139.154 107.071 139.148 107.194 139.137C107.323 139.119 107.432 139.102 107.52 139.084L107.528 140.947C107.312 141.018 107.077 141.073 106.825 141.114C106.573 141.155 106.295 141.176 105.99 141.176C105.434 141.176 104.947 141.085 104.531 140.903C104.121 140.716 103.805 140.417 103.582 140.007C103.359 139.597 103.248 139.058 103.248 138.39V129.144Z" fill="black"/>
<path d="M250.939 136.755H253.567C253.515 137.616 253.277 138.381 252.855 139.049C252.439 139.717 251.856 140.238 251.106 140.613C250.362 140.988 249.466 141.176 248.417 141.176C247.597 141.176 246.861 141.035 246.211 140.754C245.561 140.467 245.004 140.057 244.541 139.523C244.084 138.99 243.735 138.346 243.495 137.59C243.255 136.834 243.135 135.987 243.135 135.05V134.162C243.135 133.225 243.258 132.378 243.504 131.622C243.756 130.86 244.113 130.213 244.576 129.68C245.045 129.146 245.604 128.736 246.255 128.449C246.905 128.162 247.632 128.019 248.435 128.019C249.501 128.019 250.4 128.212 251.133 128.599C251.871 128.985 252.442 129.519 252.847 130.198C253.257 130.878 253.503 131.651 253.585 132.519H250.948C250.919 132.003 250.816 131.566 250.641 131.209C250.465 130.846 250.198 130.573 249.841 130.392C249.489 130.204 249.021 130.11 248.435 130.11C247.995 130.11 247.611 130.192 247.283 130.356C246.955 130.521 246.68 130.77 246.457 131.104C246.234 131.438 246.067 131.859 245.956 132.369C245.851 132.873 245.798 133.465 245.798 134.145V135.05C245.798 135.712 245.848 136.295 245.947 136.799C246.047 137.297 246.199 137.719 246.404 138.064C246.615 138.404 246.885 138.662 247.213 138.838C247.547 139.008 247.948 139.093 248.417 139.093C248.968 139.093 249.422 139.005 249.779 138.829C250.137 138.653 250.409 138.393 250.597 138.047C250.79 137.701 250.904 137.271 250.939 136.755ZM257.812 127.5V141H255.272V127.5H257.812ZM259.5 136.342V136.157C259.5 135.46 259.6 134.818 259.799 134.232C259.998 133.641 260.288 133.128 260.669 132.694C261.05 132.261 261.519 131.924 262.075 131.684C262.632 131.438 263.271 131.314 263.991 131.314C264.712 131.314 265.354 131.438 265.916 131.684C266.479 131.924 266.95 132.261 267.331 132.694C267.718 133.128 268.011 133.641 268.21 134.232C268.409 134.818 268.509 135.46 268.509 136.157V136.342C268.509 137.033 268.409 137.675 268.21 138.267C268.011 138.853 267.718 139.365 267.331 139.805C266.95 140.238 266.481 140.575 265.925 140.815C265.368 141.056 264.729 141.176 264.009 141.176C263.288 141.176 262.646 141.056 262.084 140.815C261.527 140.575 261.056 140.238 260.669 139.805C260.288 139.365 259.998 138.853 259.799 138.267C259.6 137.675 259.5 137.033 259.5 136.342ZM262.031 136.157V136.342C262.031 136.74 262.066 137.112 262.137 137.458C262.207 137.804 262.318 138.108 262.471 138.372C262.629 138.63 262.834 138.832 263.086 138.979C263.338 139.125 263.646 139.198 264.009 139.198C264.36 139.198 264.662 139.125 264.914 138.979C265.166 138.832 265.368 138.63 265.521 138.372C265.673 138.108 265.784 137.804 265.854 137.458C265.931 137.112 265.969 136.74 265.969 136.342V136.157C265.969 135.771 265.931 135.407 265.854 135.067C265.784 134.722 265.67 134.417 265.512 134.153C265.359 133.884 265.157 133.673 264.905 133.521C264.653 133.368 264.349 133.292 263.991 133.292C263.634 133.292 263.329 133.368 263.077 133.521C262.831 133.673 262.629 133.884 262.471 134.153C262.318 134.417 262.207 134.722 262.137 135.067C262.066 135.407 262.031 135.771 262.031 136.157ZM275.206 138.372C275.206 138.19 275.153 138.026 275.048 137.88C274.942 137.733 274.746 137.599 274.459 137.476C274.178 137.347 273.771 137.229 273.237 137.124C272.757 137.019 272.309 136.887 271.893 136.729C271.482 136.564 271.125 136.368 270.82 136.14C270.521 135.911 270.287 135.642 270.117 135.331C269.947 135.015 269.862 134.654 269.862 134.25C269.862 133.852 269.947 133.477 270.117 133.125C270.293 132.773 270.542 132.463 270.864 132.193C271.192 131.918 271.591 131.704 272.06 131.552C272.534 131.394 273.067 131.314 273.659 131.314C274.485 131.314 275.194 131.446 275.786 131.71C276.384 131.974 276.841 132.337 277.157 132.8C277.479 133.257 277.641 133.778 277.641 134.364H275.109C275.109 134.118 275.057 133.898 274.951 133.705C274.852 133.506 274.693 133.351 274.477 133.239C274.266 133.122 273.99 133.063 273.65 133.063C273.369 133.063 273.126 133.113 272.921 133.213C272.716 133.307 272.558 133.436 272.446 133.6C272.341 133.758 272.288 133.934 272.288 134.127C272.288 134.273 272.317 134.405 272.376 134.522C272.44 134.634 272.543 134.736 272.684 134.83C272.824 134.924 273.006 135.012 273.229 135.094C273.457 135.17 273.738 135.24 274.072 135.305C274.758 135.445 275.37 135.63 275.909 135.858C276.448 136.081 276.876 136.386 277.192 136.772C277.509 137.153 277.667 137.654 277.667 138.275C277.667 138.697 277.573 139.084 277.386 139.436C277.198 139.787 276.929 140.095 276.577 140.358C276.226 140.616 275.804 140.818 275.312 140.965C274.825 141.105 274.277 141.176 273.668 141.176C272.783 141.176 272.033 141.018 271.418 140.701C270.809 140.385 270.346 139.983 270.029 139.497C269.719 139.005 269.563 138.501 269.563 137.985H271.963C271.975 138.331 272.062 138.609 272.227 138.82C272.396 139.031 272.61 139.184 272.868 139.277C273.132 139.371 273.416 139.418 273.721 139.418C274.049 139.418 274.321 139.374 274.538 139.286C274.755 139.192 274.919 139.069 275.03 138.917C275.147 138.759 275.206 138.577 275.206 138.372ZM283.688 141.176C282.949 141.176 282.287 141.059 281.701 140.824C281.115 140.584 280.617 140.253 280.207 139.831C279.803 139.409 279.492 138.92 279.275 138.363C279.059 137.801 278.95 137.203 278.95 136.57V136.219C278.95 135.498 279.053 134.839 279.258 134.241C279.463 133.644 279.756 133.125 280.137 132.686C280.523 132.246 280.992 131.909 281.543 131.675C282.094 131.435 282.715 131.314 283.406 131.314C284.08 131.314 284.678 131.426 285.199 131.648C285.721 131.871 286.157 132.188 286.509 132.598C286.866 133.008 287.136 133.5 287.317 134.074C287.499 134.643 287.59 135.275 287.59 135.973V137.027H280.031V135.34H285.103V135.146C285.103 134.795 285.038 134.481 284.909 134.206C284.786 133.925 284.599 133.702 284.347 133.538C284.095 133.374 283.772 133.292 283.38 133.292C283.046 133.292 282.759 133.365 282.519 133.512C282.278 133.658 282.082 133.863 281.93 134.127C281.783 134.391 281.672 134.701 281.596 135.059C281.525 135.41 281.49 135.797 281.49 136.219V136.57C281.49 136.951 281.543 137.303 281.648 137.625C281.76 137.947 281.915 138.226 282.114 138.46C282.319 138.694 282.565 138.876 282.853 139.005C283.146 139.134 283.477 139.198 283.846 139.198C284.303 139.198 284.728 139.11 285.12 138.935C285.519 138.753 285.861 138.48 286.148 138.117L287.379 139.453C287.18 139.74 286.907 140.016 286.562 140.279C286.222 140.543 285.812 140.76 285.331 140.93C284.851 141.094 284.303 141.176 283.688 141.176ZM294.647 138.926V127.5H297.196V141H294.902L294.647 138.926ZM288.636 136.359V136.175C288.636 135.448 288.718 134.789 288.882 134.197C289.046 133.6 289.286 133.087 289.603 132.659C289.919 132.231 290.309 131.9 290.771 131.666C291.234 131.432 291.762 131.314 292.354 131.314C292.91 131.314 293.396 131.432 293.812 131.666C294.234 131.9 294.592 132.234 294.885 132.668C295.184 133.096 295.424 133.603 295.605 134.188C295.787 134.769 295.919 135.404 296.001 136.096V136.5C295.919 137.162 295.787 137.777 295.605 138.346C295.424 138.914 295.184 139.412 294.885 139.84C294.592 140.262 294.234 140.59 293.812 140.824C293.391 141.059 292.898 141.176 292.336 141.176C291.744 141.176 291.217 141.056 290.754 140.815C290.297 140.575 289.91 140.238 289.594 139.805C289.283 139.371 289.046 138.861 288.882 138.275C288.718 137.689 288.636 137.051 288.636 136.359ZM291.167 136.175V136.359C291.167 136.752 291.196 137.118 291.255 137.458C291.319 137.798 291.422 138.1 291.562 138.363C291.709 138.621 291.896 138.823 292.125 138.97C292.359 139.11 292.644 139.181 292.978 139.181C293.411 139.181 293.769 139.084 294.05 138.891C294.331 138.691 294.545 138.419 294.691 138.073C294.844 137.728 294.932 137.329 294.955 136.878V135.727C294.938 135.357 294.885 135.026 294.797 134.733C294.715 134.435 294.592 134.18 294.428 133.969C294.27 133.758 294.07 133.594 293.83 133.477C293.596 133.359 293.317 133.301 292.995 133.301C292.667 133.301 292.386 133.377 292.151 133.529C291.917 133.676 291.727 133.878 291.58 134.136C291.439 134.394 291.334 134.698 291.264 135.05C291.199 135.396 291.167 135.771 291.167 136.175ZM308.824 135.384H305.537L305.52 133.573H308.279C308.766 133.573 309.164 133.512 309.475 133.389C309.785 133.26 310.017 133.075 310.169 132.835C310.327 132.589 310.406 132.29 310.406 131.938C310.406 131.54 310.33 131.218 310.178 130.972C310.031 130.726 309.8 130.547 309.483 130.436C309.173 130.324 308.771 130.269 308.279 130.269H306.451V141H303.814V128.203H308.279C309.023 128.203 309.688 128.273 310.274 128.414C310.866 128.555 311.367 128.769 311.777 129.056C312.188 129.343 312.501 129.706 312.718 130.146C312.935 130.579 313.043 131.095 313.043 131.692C313.043 132.22 312.923 132.706 312.683 133.151C312.448 133.597 312.076 133.96 311.566 134.241C311.062 134.522 310.403 134.678 309.589 134.707L308.824 135.384ZM308.71 141H304.816L305.845 138.943H308.71C309.173 138.943 309.551 138.87 309.844 138.724C310.137 138.571 310.354 138.366 310.494 138.108C310.635 137.851 310.705 137.555 310.705 137.221C310.705 136.846 310.641 136.521 310.512 136.245C310.389 135.97 310.189 135.759 309.914 135.612C309.639 135.46 309.275 135.384 308.824 135.384H306.284L306.302 133.573H309.466L310.072 134.285C310.852 134.273 311.479 134.411 311.953 134.698C312.434 134.979 312.782 135.346 312.999 135.797C313.222 136.248 313.333 136.731 313.333 137.247C313.333 138.067 313.154 138.759 312.797 139.321C312.439 139.878 311.915 140.297 311.224 140.578C310.538 140.859 309.7 141 308.71 141ZM319.529 141.176C318.791 141.176 318.129 141.059 317.543 140.824C316.957 140.584 316.459 140.253 316.049 139.831C315.645 139.409 315.334 138.92 315.117 138.363C314.9 137.801 314.792 137.203 314.792 136.57V136.219C314.792 135.498 314.895 134.839 315.1 134.241C315.305 133.644 315.598 133.125 315.979 132.686C316.365 132.246 316.834 131.909 317.385 131.675C317.936 131.435 318.557 131.314 319.248 131.314C319.922 131.314 320.52 131.426 321.041 131.648C321.562 131.871 321.999 132.188 322.351 132.598C322.708 133.008 322.978 133.5 323.159 134.074C323.341 134.643 323.432 135.275 323.432 135.973V137.027H315.873V135.34H320.944V135.146C320.944 134.795 320.88 134.481 320.751 134.206C320.628 133.925 320.44 133.702 320.188 133.538C319.937 133.374 319.614 133.292 319.222 133.292C318.888 133.292 318.601 133.365 318.36 133.512C318.12 133.658 317.924 133.863 317.771 134.127C317.625 134.391 317.514 134.701 317.438 135.059C317.367 135.41 317.332 135.797 317.332 136.219V136.57C317.332 136.951 317.385 137.303 317.49 137.625C317.602 137.947 317.757 138.226 317.956 138.46C318.161 138.694 318.407 138.876 318.694 139.005C318.987 139.134 319.318 139.198 319.688 139.198C320.145 139.198 320.569 139.11 320.962 138.935C321.36 138.753 321.703 138.48 321.99 138.117L323.221 139.453C323.021 139.74 322.749 140.016 322.403 140.279C322.063 140.543 321.653 140.76 321.173 140.93C320.692 141.094 320.145 141.176 319.529 141.176ZM329.531 131.49V133.283H323.994V131.49H329.531ZM325.365 129.144H327.896V138.135C327.896 138.41 327.932 138.621 328.002 138.768C328.078 138.914 328.189 139.017 328.336 139.075C328.482 139.128 328.667 139.154 328.89 139.154C329.048 139.154 329.188 139.148 329.312 139.137C329.44 139.119 329.549 139.102 329.637 139.084L329.646 140.947C329.429 141.018 329.194 141.073 328.942 141.114C328.69 141.155 328.412 141.176 328.107 141.176C327.551 141.176 327.064 141.085 326.648 140.903C326.238 140.716 325.922 140.417 325.699 140.007C325.477 139.597 325.365 139.058 325.365 138.39V129.144ZM336.105 138.855V134.619C336.105 134.314 336.056 134.054 335.956 133.837C335.856 133.614 335.701 133.441 335.49 133.318C335.285 133.195 335.019 133.134 334.69 133.134C334.409 133.134 334.166 133.184 333.961 133.283C333.756 133.377 333.598 133.515 333.486 133.696C333.375 133.872 333.319 134.08 333.319 134.32H330.788C330.788 133.916 330.882 133.532 331.069 133.169C331.257 132.806 331.529 132.486 331.887 132.211C332.244 131.93 332.669 131.71 333.161 131.552C333.659 131.394 334.216 131.314 334.831 131.314C335.569 131.314 336.226 131.438 336.8 131.684C337.374 131.93 337.825 132.299 338.153 132.791C338.487 133.283 338.654 133.898 338.654 134.637V138.706C338.654 139.228 338.687 139.655 338.751 139.989C338.815 140.317 338.909 140.604 339.032 140.851V141H336.475C336.352 140.742 336.258 140.42 336.193 140.033C336.135 139.641 336.105 139.248 336.105 138.855ZM336.439 135.208L336.457 136.641H335.042C334.708 136.641 334.418 136.679 334.172 136.755C333.926 136.831 333.724 136.939 333.565 137.08C333.407 137.215 333.29 137.373 333.214 137.555C333.144 137.736 333.108 137.936 333.108 138.152C333.108 138.369 333.158 138.565 333.258 138.741C333.357 138.911 333.501 139.046 333.688 139.146C333.876 139.239 334.096 139.286 334.348 139.286C334.729 139.286 335.06 139.21 335.341 139.058C335.622 138.905 335.839 138.718 335.991 138.495C336.149 138.272 336.231 138.062 336.237 137.862L336.905 138.935C336.812 139.175 336.683 139.424 336.519 139.682C336.36 139.939 336.158 140.183 335.912 140.411C335.666 140.634 335.37 140.818 335.024 140.965C334.679 141.105 334.269 141.176 333.794 141.176C333.19 141.176 332.643 141.056 332.15 140.815C331.664 140.569 331.277 140.232 330.99 139.805C330.709 139.371 330.568 138.879 330.568 138.328C330.568 137.83 330.662 137.388 330.85 137.001C331.037 136.614 331.312 136.289 331.676 136.025C332.045 135.756 332.505 135.554 333.056 135.419C333.606 135.278 334.245 135.208 334.972 135.208H336.439Z" fill="black"/>
<path d="M467.766 134.303V134.909C467.766 135.882 467.634 136.755 467.37 137.528C467.106 138.302 466.734 138.961 466.254 139.506C465.773 140.045 465.199 140.458 464.531 140.745C463.869 141.032 463.134 141.176 462.325 141.176C461.522 141.176 460.787 141.032 460.119 140.745C459.457 140.458 458.883 140.045 458.396 139.506C457.91 138.961 457.532 138.302 457.263 137.528C456.999 136.755 456.867 135.882 456.867 134.909V134.303C456.867 133.324 456.999 132.451 457.263 131.684C457.526 130.91 457.898 130.251 458.379 129.706C458.865 129.161 459.439 128.745 460.102 128.458C460.77 128.171 461.505 128.027 462.308 128.027C463.116 128.027 463.852 128.171 464.514 128.458C465.182 128.745 465.756 129.161 466.236 129.706C466.723 130.251 467.098 130.91 467.361 131.684C467.631 132.451 467.766 133.324 467.766 134.303ZM465.103 134.909V134.285C465.103 133.605 465.041 133.008 464.918 132.492C464.795 131.977 464.613 131.543 464.373 131.191C464.133 130.84 463.84 130.576 463.494 130.4C463.148 130.219 462.753 130.128 462.308 130.128C461.862 130.128 461.467 130.219 461.121 130.4C460.781 130.576 460.491 130.84 460.251 131.191C460.017 131.543 459.838 131.977 459.715 132.492C459.592 133.008 459.53 133.605 459.53 134.285V134.909C459.53 135.583 459.592 136.181 459.715 136.702C459.838 137.218 460.02 137.654 460.26 138.012C460.5 138.363 460.793 138.63 461.139 138.812C461.484 138.993 461.88 139.084 462.325 139.084C462.771 139.084 463.166 138.993 463.512 138.812C463.857 138.63 464.147 138.363 464.382 138.012C464.616 137.654 464.795 137.218 464.918 136.702C465.041 136.181 465.103 135.583 465.103 134.909ZM472.037 133.318V144.656H469.506V131.49H471.853L472.037 133.318ZM478.058 136.14V136.324C478.058 137.016 477.976 137.657 477.812 138.249C477.653 138.841 477.419 139.356 477.108 139.796C476.798 140.229 476.411 140.569 475.948 140.815C475.491 141.056 474.964 141.176 474.366 141.176C473.786 141.176 473.282 141.059 472.854 140.824C472.427 140.59 472.066 140.262 471.773 139.84C471.486 139.412 471.255 138.917 471.079 138.354C470.903 137.792 470.769 137.188 470.675 136.544V136.061C470.769 135.369 470.903 134.736 471.079 134.162C471.255 133.582 471.486 133.081 471.773 132.659C472.066 132.231 472.424 131.9 472.846 131.666C473.273 131.432 473.774 131.314 474.349 131.314C474.952 131.314 475.482 131.429 475.939 131.657C476.402 131.886 476.789 132.214 477.1 132.642C477.416 133.069 477.653 133.579 477.812 134.171C477.976 134.763 478.058 135.419 478.058 136.14ZM475.518 136.324V136.14C475.518 135.735 475.482 135.363 475.412 135.023C475.348 134.678 475.242 134.376 475.096 134.118C474.955 133.86 474.768 133.661 474.533 133.521C474.305 133.374 474.026 133.301 473.698 133.301C473.353 133.301 473.057 133.356 472.811 133.468C472.57 133.579 472.374 133.74 472.222 133.951C472.069 134.162 471.955 134.414 471.879 134.707C471.803 135 471.756 135.331 471.738 135.7V136.922C471.768 137.355 471.85 137.745 471.984 138.091C472.119 138.431 472.327 138.7 472.608 138.899C472.89 139.099 473.259 139.198 473.716 139.198C474.05 139.198 474.331 139.125 474.56 138.979C474.788 138.826 474.973 138.618 475.113 138.354C475.26 138.091 475.362 137.786 475.421 137.44C475.485 137.095 475.518 136.723 475.518 136.324ZM484.008 141.176C483.27 141.176 482.607 141.059 482.021 140.824C481.436 140.584 480.938 140.253 480.527 139.831C480.123 139.409 479.812 138.92 479.596 138.363C479.379 137.801 479.271 137.203 479.271 136.57V136.219C479.271 135.498 479.373 134.839 479.578 134.241C479.783 133.644 480.076 133.125 480.457 132.686C480.844 132.246 481.312 131.909 481.863 131.675C482.414 131.435 483.035 131.314 483.727 131.314C484.4 131.314 484.998 131.426 485.52 131.648C486.041 131.871 486.478 132.188 486.829 132.598C487.187 133.008 487.456 133.5 487.638 134.074C487.819 134.643 487.91 135.275 487.91 135.973V137.027H480.352V135.34H485.423V135.146C485.423 134.795 485.358 134.481 485.229 134.206C485.106 133.925 484.919 133.702 484.667 133.538C484.415 133.374 484.093 133.292 483.7 133.292C483.366 133.292 483.079 133.365 482.839 133.512C482.599 133.658 482.402 133.863 482.25 134.127C482.104 134.391 481.992 134.701 481.916 135.059C481.846 135.41 481.811 135.797 481.811 136.219V136.57C481.811 136.951 481.863 137.303 481.969 137.625C482.08 137.947 482.235 138.226 482.435 138.46C482.64 138.694 482.886 138.876 483.173 139.005C483.466 139.134 483.797 139.198 484.166 139.198C484.623 139.198 485.048 139.11 485.44 138.935C485.839 138.753 486.182 138.48 486.469 138.117L487.699 139.453C487.5 139.74 487.228 140.016 486.882 140.279C486.542 140.543 486.132 140.76 485.651 140.93C485.171 141.094 484.623 141.176 484.008 141.176ZM491.83 133.521V141H489.299V131.49H491.672L491.83 133.521ZM491.461 135.911H490.775C490.775 135.208 490.866 134.575 491.048 134.013C491.229 133.444 491.484 132.961 491.812 132.562C492.141 132.158 492.53 131.851 492.981 131.64C493.438 131.423 493.948 131.314 494.511 131.314C494.956 131.314 495.363 131.379 495.732 131.508C496.102 131.637 496.418 131.842 496.682 132.123C496.951 132.404 497.156 132.776 497.297 133.239C497.443 133.702 497.517 134.268 497.517 134.936V141H494.968V134.927C494.968 134.505 494.909 134.177 494.792 133.942C494.675 133.708 494.502 133.544 494.273 133.45C494.051 133.351 493.775 133.301 493.447 133.301C493.107 133.301 492.812 133.368 492.56 133.503C492.313 133.638 492.108 133.825 491.944 134.065C491.786 134.3 491.666 134.575 491.584 134.892C491.502 135.208 491.461 135.548 491.461 135.911ZM509.092 135.384H505.805L505.787 133.573H508.547C509.033 133.573 509.432 133.512 509.742 133.389C510.053 133.26 510.284 133.075 510.437 132.835C510.595 132.589 510.674 132.29 510.674 131.938C510.674 131.54 510.598 131.218 510.445 130.972C510.299 130.726 510.067 130.547 509.751 130.436C509.44 130.324 509.039 130.269 508.547 130.269H506.719V141H504.082V128.203H508.547C509.291 128.203 509.956 128.273 510.542 128.414C511.134 128.555 511.635 128.769 512.045 129.056C512.455 129.343 512.769 129.706 512.985 130.146C513.202 130.579 513.311 131.095 513.311 131.692C513.311 132.22 513.19 132.706 512.95 133.151C512.716 133.597 512.344 133.96 511.834 134.241C511.33 134.522 510.671 134.678 509.856 134.707L509.092 135.384ZM508.978 141H505.084L506.112 138.943H508.978C509.44 138.943 509.818 138.87 510.111 138.724C510.404 138.571 510.621 138.366 510.762 138.108C510.902 137.851 510.973 137.555 510.973 137.221C510.973 136.846 510.908 136.521 510.779 136.245C510.656 135.97 510.457 135.759 510.182 135.612C509.906 135.46 509.543 135.384 509.092 135.384H506.552L506.569 133.573H509.733L510.34 134.285C511.119 134.273 511.746 134.411 512.221 134.698C512.701 134.979 513.05 135.346 513.267 135.797C513.489 136.248 513.601 136.731 513.601 137.247C513.601 138.067 513.422 138.759 513.064 139.321C512.707 139.878 512.183 140.297 511.491 140.578C510.806 140.859 509.968 141 508.978 141ZM519.797 141.176C519.059 141.176 518.396 141.059 517.811 140.824C517.225 140.584 516.727 140.253 516.316 139.831C515.912 139.409 515.602 138.92 515.385 138.363C515.168 137.801 515.06 137.203 515.06 136.57V136.219C515.06 135.498 515.162 134.839 515.367 134.241C515.572 133.644 515.865 133.125 516.246 132.686C516.633 132.246 517.102 131.909 517.652 131.675C518.203 131.435 518.824 131.314 519.516 131.314C520.189 131.314 520.787 131.426 521.309 131.648C521.83 131.871 522.267 132.188 522.618 132.598C522.976 133.008 523.245 133.5 523.427 134.074C523.608 134.643 523.699 135.275 523.699 135.973V137.027H516.141V135.34H521.212V135.146C521.212 134.795 521.147 134.481 521.019 134.206C520.896 133.925 520.708 133.702 520.456 133.538C520.204 133.374 519.882 133.292 519.489 133.292C519.155 133.292 518.868 133.365 518.628 133.512C518.388 133.658 518.191 133.863 518.039 134.127C517.893 134.391 517.781 134.701 517.705 135.059C517.635 135.41 517.6 135.797 517.6 136.219V136.57C517.6 136.951 517.652 137.303 517.758 137.625C517.869 137.947 518.024 138.226 518.224 138.46C518.429 138.694 518.675 138.876 518.962 139.005C519.255 139.134 519.586 139.198 519.955 139.198C520.412 139.198 520.837 139.11 521.229 138.935C521.628 138.753 521.971 138.48 522.258 138.117L523.488 139.453C523.289 139.74 523.017 140.016 522.671 140.279C522.331 140.543 521.921 140.76 521.44 140.93C520.96 141.094 520.412 141.176 519.797 141.176ZM529.799 131.49V133.283H524.262V131.49H529.799ZM525.633 129.144H528.164V138.135C528.164 138.41 528.199 138.621 528.27 138.768C528.346 138.914 528.457 139.017 528.604 139.075C528.75 139.128 528.935 139.154 529.157 139.154C529.315 139.154 529.456 139.148 529.579 139.137C529.708 139.119 529.816 139.102 529.904 139.084L529.913 140.947C529.696 141.018 529.462 141.073 529.21 141.114C528.958 141.155 528.68 141.176 528.375 141.176C527.818 141.176 527.332 141.085 526.916 140.903C526.506 140.716 526.189 140.417 525.967 140.007C525.744 139.597 525.633 139.058 525.633 138.39V129.144ZM536.373 138.855V134.619C536.373 134.314 536.323 134.054 536.224 133.837C536.124 133.614 535.969 133.441 535.758 133.318C535.553 133.195 535.286 133.134 534.958 133.134C534.677 133.134 534.434 133.184 534.229 133.283C534.023 133.377 533.865 133.515 533.754 133.696C533.643 133.872 533.587 134.08 533.587 134.32H531.056C531.056 133.916 531.149 133.532 531.337 133.169C531.524 132.806 531.797 132.486 532.154 132.211C532.512 131.93 532.937 131.71 533.429 131.552C533.927 131.394 534.483 131.314 535.099 131.314C535.837 131.314 536.493 131.438 537.067 131.684C537.642 131.93 538.093 132.299 538.421 132.791C538.755 133.283 538.922 133.898 538.922 134.637V138.706C538.922 139.228 538.954 139.655 539.019 139.989C539.083 140.317 539.177 140.604 539.3 140.851V141H536.742C536.619 140.742 536.525 140.42 536.461 140.033C536.402 139.641 536.373 139.248 536.373 138.855ZM536.707 135.208L536.725 136.641H535.31C534.976 136.641 534.686 136.679 534.439 136.755C534.193 136.831 533.991 136.939 533.833 137.08C533.675 137.215 533.558 137.373 533.481 137.555C533.411 137.736 533.376 137.936 533.376 138.152C533.376 138.369 533.426 138.565 533.525 138.741C533.625 138.911 533.769 139.046 533.956 139.146C534.144 139.239 534.363 139.286 534.615 139.286C534.996 139.286 535.327 139.21 535.608 139.058C535.89 138.905 536.106 138.718 536.259 138.495C536.417 138.272 536.499 138.062 536.505 137.862L537.173 138.935C537.079 139.175 536.95 139.424 536.786 139.682C536.628 139.939 536.426 140.183 536.18 140.411C535.934 140.634 535.638 140.818 535.292 140.965C534.946 141.105 534.536 141.176 534.062 141.176C533.458 141.176 532.91 141.056 532.418 140.815C531.932 140.569 531.545 140.232 531.258 139.805C530.977 139.371 530.836 138.879 530.836 138.328C530.836 137.83 530.93 137.388 531.117 137.001C531.305 136.614 531.58 136.289 531.943 136.025C532.312 135.756 532.772 135.554 533.323 135.419C533.874 135.278 534.513 135.208 535.239 135.208H536.707Z" fill="black"/>
<path d="M674.475 128.203H679.247C680.226 128.203 681.066 128.35 681.77 128.643C682.479 128.936 683.023 129.369 683.404 129.943C683.785 130.518 683.976 131.224 683.976 132.062C683.976 132.747 683.858 133.336 683.624 133.828C683.396 134.314 683.07 134.722 682.648 135.05C682.232 135.372 681.743 135.63 681.181 135.823L680.346 136.263H676.197L676.18 134.206H679.265C679.728 134.206 680.111 134.124 680.416 133.96C680.721 133.796 680.949 133.567 681.102 133.274C681.26 132.981 681.339 132.642 681.339 132.255C681.339 131.845 681.263 131.49 681.11 131.191C680.958 130.893 680.727 130.664 680.416 130.506C680.105 130.348 679.716 130.269 679.247 130.269H677.111V141H674.475V128.203ZM681.629 141L678.711 135.296L681.497 135.278L684.45 140.877V141H681.629ZM690.225 141.176C689.486 141.176 688.824 141.059 688.238 140.824C687.652 140.584 687.154 140.253 686.744 139.831C686.34 139.409 686.029 138.92 685.812 138.363C685.596 137.801 685.487 137.203 685.487 136.57V136.219C685.487 135.498 685.59 134.839 685.795 134.241C686 133.644 686.293 133.125 686.674 132.686C687.061 132.246 687.529 131.909 688.08 131.675C688.631 131.435 689.252 131.314 689.943 131.314C690.617 131.314 691.215 131.426 691.736 131.648C692.258 131.871 692.694 132.188 693.046 132.598C693.403 133.008 693.673 133.5 693.854 134.074C694.036 134.643 694.127 135.275 694.127 135.973V137.027H686.568V135.34H691.64V135.146C691.64 134.795 691.575 134.481 691.446 134.206C691.323 133.925 691.136 133.702 690.884 133.538C690.632 133.374 690.31 133.292 689.917 133.292C689.583 133.292 689.296 133.365 689.056 133.512C688.815 133.658 688.619 133.863 688.467 134.127C688.32 134.391 688.209 134.701 688.133 135.059C688.062 135.41 688.027 135.797 688.027 136.219V136.57C688.027 136.951 688.08 137.303 688.186 137.625C688.297 137.947 688.452 138.226 688.651 138.46C688.856 138.694 689.103 138.876 689.39 139.005C689.683 139.134 690.014 139.198 690.383 139.198C690.84 139.198 691.265 139.11 691.657 138.935C692.056 138.753 692.398 138.48 692.686 138.117L693.916 139.453C693.717 139.74 693.444 140.016 693.099 140.279C692.759 140.543 692.349 140.76 691.868 140.93C691.388 141.094 690.84 141.176 690.225 141.176ZM698.24 127.5V141H695.7V127.5H698.24ZM704.709 141.176C703.971 141.176 703.309 141.059 702.723 140.824C702.137 140.584 701.639 140.253 701.229 139.831C700.824 139.409 700.514 138.92 700.297 138.363C700.08 137.801 699.972 137.203 699.972 136.57V136.219C699.972 135.498 700.074 134.839 700.279 134.241C700.484 133.644 700.777 133.125 701.158 132.686C701.545 132.246 702.014 131.909 702.564 131.675C703.115 131.435 703.736 131.314 704.428 131.314C705.102 131.314 705.699 131.426 706.221 131.648C706.742 131.871 707.179 132.188 707.53 132.598C707.888 133.008 708.157 133.5 708.339 134.074C708.521 134.643 708.611 135.275 708.611 135.973V137.027H701.053V135.34H706.124V135.146C706.124 134.795 706.06 134.481 705.931 134.206C705.808 133.925 705.62 133.702 705.368 133.538C705.116 133.374 704.794 133.292 704.401 133.292C704.067 133.292 703.78 133.365 703.54 133.512C703.3 133.658 703.104 133.863 702.951 134.127C702.805 134.391 702.693 134.701 702.617 135.059C702.547 135.41 702.512 135.797 702.512 136.219V136.57C702.512 136.951 702.564 137.303 702.67 137.625C702.781 137.947 702.937 138.226 703.136 138.46C703.341 138.694 703.587 138.876 703.874 139.005C704.167 139.134 704.498 139.198 704.867 139.198C705.324 139.198 705.749 139.11 706.142 138.935C706.54 138.753 706.883 138.48 707.17 138.117L708.4 139.453C708.201 139.74 707.929 140.016 707.583 140.279C707.243 140.543 706.833 140.76 706.353 140.93C705.872 141.094 705.324 141.176 704.709 141.176ZM715.186 138.855V134.619C715.186 134.314 715.136 134.054 715.036 133.837C714.937 133.614 714.781 133.441 714.57 133.318C714.365 133.195 714.099 133.134 713.771 133.134C713.489 133.134 713.246 133.184 713.041 133.283C712.836 133.377 712.678 133.515 712.566 133.696C712.455 133.872 712.399 134.08 712.399 134.32H709.868C709.868 133.916 709.962 133.532 710.149 133.169C710.337 132.806 710.609 132.486 710.967 132.211C711.324 131.93 711.749 131.71 712.241 131.552C712.739 131.394 713.296 131.314 713.911 131.314C714.649 131.314 715.306 131.438 715.88 131.684C716.454 131.93 716.905 132.299 717.233 132.791C717.567 133.283 717.734 133.898 717.734 134.637V138.706C717.734 139.228 717.767 139.655 717.831 139.989C717.896 140.317 717.989 140.604 718.112 140.851V141H715.555C715.432 140.742 715.338 140.42 715.273 140.033C715.215 139.641 715.186 139.248 715.186 138.855ZM715.52 135.208L715.537 136.641H714.122C713.788 136.641 713.498 136.679 713.252 136.755C713.006 136.831 712.804 136.939 712.646 137.08C712.487 137.215 712.37 137.373 712.294 137.555C712.224 137.736 712.188 137.936 712.188 138.152C712.188 138.369 712.238 138.565 712.338 138.741C712.438 138.911 712.581 139.046 712.769 139.146C712.956 139.239 713.176 139.286 713.428 139.286C713.809 139.286 714.14 139.21 714.421 139.058C714.702 138.905 714.919 138.718 715.071 138.495C715.229 138.272 715.312 138.062 715.317 137.862L715.985 138.935C715.892 139.175 715.763 139.424 715.599 139.682C715.44 139.939 715.238 140.183 714.992 140.411C714.746 140.634 714.45 140.818 714.104 140.965C713.759 141.105 713.349 141.176 712.874 141.176C712.271 141.176 711.723 141.056 711.23 140.815C710.744 140.569 710.357 140.232 710.07 139.805C709.789 139.371 709.648 138.879 709.648 138.328C709.648 137.83 709.742 137.388 709.93 137.001C710.117 136.614 710.393 136.289 710.756 136.025C711.125 135.756 711.585 135.554 712.136 135.419C712.687 135.278 713.325 135.208 714.052 135.208H715.52ZM724.827 138.372C724.827 138.19 724.774 138.026 724.669 137.88C724.563 137.733 724.367 137.599 724.08 137.476C723.799 137.347 723.392 137.229 722.858 137.124C722.378 137.019 721.93 136.887 721.514 136.729C721.104 136.564 720.746 136.368 720.441 136.14C720.143 135.911 719.908 135.642 719.738 135.331C719.568 135.015 719.483 134.654 719.483 134.25C719.483 133.852 719.568 133.477 719.738 133.125C719.914 132.773 720.163 132.463 720.485 132.193C720.813 131.918 721.212 131.704 721.681 131.552C722.155 131.394 722.688 131.314 723.28 131.314C724.106 131.314 724.815 131.446 725.407 131.71C726.005 131.974 726.462 132.337 726.778 132.8C727.101 133.257 727.262 133.778 727.262 134.364H724.73C724.73 134.118 724.678 133.898 724.572 133.705C724.473 133.506 724.314 133.351 724.098 133.239C723.887 133.122 723.611 133.063 723.271 133.063C722.99 133.063 722.747 133.113 722.542 133.213C722.337 133.307 722.179 133.436 722.067 133.6C721.962 133.758 721.909 133.934 721.909 134.127C721.909 134.273 721.938 134.405 721.997 134.522C722.062 134.634 722.164 134.736 722.305 134.83C722.445 134.924 722.627 135.012 722.85 135.094C723.078 135.17 723.359 135.24 723.693 135.305C724.379 135.445 724.991 135.63 725.53 135.858C726.069 136.081 726.497 136.386 726.813 136.772C727.13 137.153 727.288 137.654 727.288 138.275C727.288 138.697 727.194 139.084 727.007 139.436C726.819 139.787 726.55 140.095 726.198 140.358C725.847 140.616 725.425 140.818 724.933 140.965C724.446 141.105 723.898 141.176 723.289 141.176C722.404 141.176 721.654 141.018 721.039 140.701C720.43 140.385 719.967 139.983 719.65 139.497C719.34 139.005 719.185 138.501 719.185 137.985H721.584C721.596 138.331 721.684 138.609 721.848 138.82C722.018 139.031 722.231 139.184 722.489 139.277C722.753 139.371 723.037 139.418 723.342 139.418C723.67 139.418 723.942 139.374 724.159 139.286C724.376 139.192 724.54 139.069 724.651 138.917C724.769 138.759 724.827 138.577 724.827 138.372ZM733.309 141.176C732.57 141.176 731.908 141.059 731.322 140.824C730.736 140.584 730.238 140.253 729.828 139.831C729.424 139.409 729.113 138.92 728.896 138.363C728.68 137.801 728.571 137.203 728.571 136.57V136.219C728.571 135.498 728.674 134.839 728.879 134.241C729.084 133.644 729.377 133.125 729.758 132.686C730.145 132.246 730.613 131.909 731.164 131.675C731.715 131.435 732.336 131.314 733.027 131.314C733.701 131.314 734.299 131.426 734.82 131.648C735.342 131.871 735.778 132.188 736.13 132.598C736.487 133.008 736.757 133.5 736.938 134.074C737.12 134.643 737.211 135.275 737.211 135.973V137.027H729.652V135.34H734.724V135.146C734.724 134.795 734.659 134.481 734.53 134.206C734.407 133.925 734.22 133.702 733.968 133.538C733.716 133.374 733.394 133.292 733.001 133.292C732.667 133.292 732.38 133.365 732.14 133.512C731.899 133.658 731.703 133.863 731.551 134.127C731.404 134.391 731.293 134.701 731.217 135.059C731.146 135.41 731.111 135.797 731.111 136.219V136.57C731.111 136.951 731.164 137.303 731.27 137.625C731.381 137.947 731.536 138.226 731.735 138.46C731.94 138.694 732.187 138.876 732.474 139.005C732.767 139.134 733.098 139.198 733.467 139.198C733.924 139.198 734.349 139.11 734.741 138.935C735.14 138.753 735.482 138.48 735.77 138.117L737 139.453C736.801 139.74 736.528 140.016 736.183 140.279C735.843 140.543 735.433 140.76 734.952 140.93C734.472 141.094 733.924 141.176 733.309 141.176Z" fill="black"/>
</svg>
