<svg width="683" height="62" viewBox="0 0 683 62" fill="none" xmlns="http://www.w3.org/2000/svg">
<path d="M269 31C269 48.1208 255.121 62 238 62C220.879 62 207 48.1208 207 31C207 13.8792 220.879 0 238 0C255.121 0 269 13.8792 269 31Z" fill="#EBE9E9"/>
<path d="M476 31C476 48.1208 462.121 62 445 62C427.879 62 414 48.1208 414 31C414 13.8792 427.879 0 445 0C462.121 0 476 13.8792 476 31Z" fill="#EBE9E9"/>
<path d="M683 31C683 48.1208 669.121 62 652 62C634.879 62 621 48.1208 621 31C621 13.8792 634.879 0 652 0C669.121 0 683 13.8792 683 31Z" fill="#EBE9E9"/>
<path d="M62 31C62 48.1208 48.1208 62 31 62C13.8792 62 0 48.1208 0 31C0 13.8792 13.8792 0 31 0C48.1208 0 62 13.8792 62 31Z" fill="#EBE9E9"/>
<path d="M47 21H652V42H47V21Z" fill="#EBE9E9"/>
</svg>
