<svg width="673" height="52" viewBox="0 0 673 52" fill="none" xmlns="http://www.w3.org/2000/svg">
<path d="M52 26C52 40.3594 40.3594 52 26 52C11.6406 52 0 40.3594 0 26C0 11.6406 11.6406 0 26 0C40.3594 0 52 11.6406 52 26Z" fill="#EB5E28"/>
<path d="M259 26C259 40.3594 247.359 52 233 52C218.641 52 207 40.3594 207 26C207 11.6406 218.641 0 233 0C247.359 0 259 11.6406 259 26Z" fill="#EB5E28"/>
<path d="M466 26C466 40.3594 454.359 52 440 52C425.641 52 414 40.3594 414 26C414 11.6406 425.641 0 440 0C454.359 0 466 11.6406 466 26Z" fill="#EB5E28"/>
<path d="M673 26C673 40.3594 661.359 52 647 52C632.641 52 621 40.3594 621 26C621 11.6406 632.641 0 647 0C661.359 0 673 11.6406 673 26Z" fill="#EB5E28"/>
<path d="M26 21H322V31H26V21Z" fill="#EB5E28"/>
<path d="M322 21H618V31H322V21Z" fill="#EB5E28"/>
<path d="M344 21H640V31H344V21Z" fill="#EB5E28"/>
</svg>
